HIERARCHY
ROOT Hips
{
 OFFSET 0.000000 0.000000 0.000000
 CHANNELS 6 Xposition Yposition Zposition Yrotation Xrotation Zrotation
 JOINT Chest
 {
  OFFSET 0.000000 9.585900 0.002600
  CHANNELS 3 Yrotation Xrotation Zrotation
  JOINT Chest2
  {
   OFFSET 0.000000 9.601200 -0.005300
   CHANNELS 3 Yrotation Xrotation Zrotation
   JOINT Chest3
   {
    OFFSET 0.000000 9.561800 0.000000
    CHANNELS 3 Yrotation Xrotation Zrotation
    JOINT Chest4
    {
     OFFSET 0.000000 9.552100 0.000000
     CHANNELS 3 Yrotation Xrotation Zrotation
     JOINT Neck
     {
      OFFSET 0.000000 14.453000 0.000000
      CHANNELS 3 Yrotation Xrotation Zrotation
      JOINT Head
      {
       OFFSET 0.000000 8.936500 -0.011300
       CHANNELS 3 Yrotation Xrotation Zrotation
       End Site
       {
        OFFSET 0.000000 17.073600 -0.006000
       }
      }
     }
     JOINT RightCollar
     {
      OFFSET -2.921100 9.558500 0.000000
      CHANNELS 3 Yrotation Xrotation Zrotation
      JOINT RightShoulder
      {
       OFFSET -13.519700 0.000000 0.000000
       CHANNELS 3 Yrotation Xrotation Zrotation
       JOINT RightElbow
       {
        OFFSET 0.000000 -29.696600 0.000000
        CHANNELS 3 Yrotation Xrotation Zrotation
        JOINT RightWrist
        {
         OFFSET 0.000000 -24.004700 0.000000
         CHANNELS 3 Yrotation Xrotation Zrotation
         End Site
         {
          OFFSET 0.000000 -17.728500 0.000000
         }
        }
       }
      }
     }
     JOINT LeftCollar
     {
      OFFSET 2.921100 9.558500 0.000000
      CHANNELS 3 Yrotation Xrotation Zrotation
      JOINT LeftShoulder
      {
       OFFSET 13.519700 0.000000 0.000000
       CHANNELS 3 Yrotation Xrotation Zrotation
       JOINT LeftElbow
       {
        OFFSET 0.000000 -29.696600 0.000000
        CHANNELS 3 Yrotation Xrotation Zrotation
        JOINT LeftWrist
        {
         OFFSET 0.000000 -24.004700 0.000000
         CHANNELS 3 Yrotation Xrotation Zrotation
         End Site
         {
          OFFSET 0.000000 -17.728500 0.000000
         }
        }
       }
      }
     }
    }
   }
  }
 }
 JOINT RightHip
 {
  OFFSET -7.771700 -0.012900 -0.001300
  CHANNELS 3 Yrotation Xrotation Zrotation
  JOINT RightKnee
  {
   OFFSET 0.000000 -40.869800 0.001200
   CHANNELS 3 Yrotation Xrotation Zrotation
   JOINT RightAnkle
   {
    OFFSET 0.000000 -39.717900 0.002100
    CHANNELS 3 Yrotation Xrotation Zrotation
    JOINT RightToe
    {
     OFFSET 0.000000 -4.965400 11.033500
     CHANNELS 3 Yrotation Xrotation Zrotation
     End Site
     {
      OFFSET 0.000000 -1.423100 5.872300
     }
    }
   }
  }
 }
 JOINT LeftHip
 {
  OFFSET 7.771700 -0.012900 -0.001300
  CHANNELS 3 Yrotation Xrotation Zrotation
  JOINT LeftKnee
  {
   OFFSET 0.000000 -40.869800 0.001200
   CHANNELS 3 Yrotation Xrotation Zrotation
   JOINT LeftAnkle
   {
    OFFSET 0.000000 -39.717900 0.002100
    CHANNELS 3 Yrotation Xrotation Zrotation
    JOINT LeftToe
    {
     OFFSET 0.000000 -4.965400 11.033500
     CHANNELS 3 Yrotation Xrotation Zrotation
     End Site
     {
      OFFSET 0.000000 -1.423100 5.872300
     }
    }
   }
  }
 }
}
MOTION
Frames: 9
Frame Time: 0.008333
0.000000 85.388000 0.000000 0.000000 -5.767877 0.000000 0.000000 11.653817 0.000000 0.000000 -5.885947 0.000000 0.000000 -0.000000 0.000000 0.000000 -0.000000 0.000000 0.000000 12.528835 0.000000 0.000000 0.711642 0.000000 0.000000 -0.000000 0.000000 0.000000 0.000000 -90.000000 0.000000 -2.309062 0.000000 0.000000 2.309062 0.000000 0.000000 -0.000000 0.000000 0.000000 -0.000000 90.000000 0.000000 -2.309062 0.000000 0.000000 2.309062 0.000000 0.000000 8.520406 0.000000 0.000000 1.905762 0.000000 -0.000000 -4.658285 0.000000 0.000000 -0.000000 0.000000 0.000000 8.520406 0.000000 0.000000 1.905762 0.000000 -0.000000 -4.658285 0.000000 0.000000 -0.000000 0.000000
15.777822 50.107593 53.998593 171.910161 -29.771500 -6.048256 8.344610 24.623275 9.486526 1.136857 4.342163 1.190255 1.847310 6.869923 1.930398 6.456861 20.394044 6.682964 -3.933288 13.562803 0.422640 -7.593645 -10.479444 2.348434 1.642697 -5.450363 -11.095811 20.959780 -31.616440 -10.282754 -157.679230 -56.452171 156.372485 -12.443225 -13.108394 16.373769 -17.886967 -6.397685 3.558746 -12.843878 -33.598875 -0.496563 147.687222 -55.841729 -156.183859 42.705305 -15.508939 6.707337 0.200151 -51.057522 10.791568 -123.380885 85.852520 -111.321867 -2.411035 -12.089378 -4.312003 -0.342972 0.718766 -0.098076 -8.167811 -54.585031 15.922249 -153.172541 80.470801 -160.255075 1.308371 -16.944958 7.722654 -0.219682 -0.898285 -0.117503
15.779074 50.109756 53.974158 171.993274 -29.787215 -6.042240 8.237606 24.588146 9.388803 1.117644 4.308012 1.175376 1.816990 6.820047 1.906778 6.384313 20.348005 6.629912 -3.902389 13.550448 0.457710 -7.549709 -10.501743 2.403292 1.623667 -5.540986 -10.947266 21.041809 -31.531158 -10.332511 -157.672664 -56.607615 156.354193 -12.436832 -13.061646 16.592488 -17.710989 -6.349801 3.427976 -12.866517 -33.600948 -0.573414 148.730570 -56.166907 -156.991738 42.579045 -15.468031 6.784710 0.206332 -51.036327 10.733149 -123.854051 85.812874 -111.829695 -2.370820 -12.121546 -4.280641 -0.365114 0.719707 -0.104617 -8.176772 -54.556280 15.861569 -152.981968 80.448713 -160.088579 1.302816 -16.960288 7.751992 -0.200335 -0.892179 -0.121594
15.781668 50.110134 53.952255 172.086853 -29.765984 -6.049995 8.120999 24.523624 9.296097 1.098517 4.269902 1.159704 1.786828 6.764164 1.881971 6.313968 20.293272 6.575617 -3.878893 13.528920 0.498576 -7.522602 -10.540212 2.472677 1.582349 -5.633286 -10.808949 21.110814 -31.441649 -10.378407 -157.616671 -56.745566 156.297243 -12.431806 -13.015060 16.810202 -17.534882 -6.324941 3.308823 -12.873367 -33.563278 -0.653492 149.624992 -56.449749 -157.707297 42.500026 -15.418154 6.804445 0.187694 -51.050924 10.676540 -124.445868 85.785866 -112.471943 -2.195230 -12.141264 -4.281386 -0.346787 0.721688 -0.093746 -8.204447 -54.568667 15.802158 -152.899278 80.435412 -160.010687 1.305238 -16.977316 7.765531 -0.188031 -0.880280 -0.123976
15.781813 50.109446 53.932099 172.177786 -29.716580 -6.045462 8.004959 24.464020 9.211736 1.075875 4.200103 1.121391 1.756696 6.701285 1.856099 6.245855 20.228355 6.520764 -3.864438 13.498850 0.544770 -7.515285 -10.593583 2.556233 1.517034 -5.718442 -10.679241 21.169174 -31.346140 -10.422488 -157.570363 -56.877031 156.255572 -12.425417 -12.985900 16.996878 -17.356628 -6.318095 3.195296 -12.872950 -33.488363 -0.732773 150.354317 -56.696307 -158.315022 42.463139 -15.381538 6.743591 0.193995 -51.096714 10.611256 -124.755090 85.739025 -112.812786 -2.135384 -12.146500 -4.274554 -0.278537 0.705308 -0.075486 -8.217806 -54.610910 15.726287 -152.838282 80.424876 -159.951530 1.281898 -17.017329 7.775975 -0.175260 -0.836674 -0.113045
15.785165 50.110249 53.912754 172.262835 -29.659920 -6.063576 7.891495 24.348489 9.117370 1.058209 4.166000 1.115493 1.724936 6.633172 1.829359 6.174178 20.156322 6.464811 -3.855056 13.463953 0.593255 -7.518779 -10.655553 2.646315 1.437549 -5.792836 -10.560563 21.211095 -31.240753 -10.454213 -157.589095 -57.012863 156.280107 -12.411769 -12.985431 17.133495 -17.164874 -6.320425 3.079758 -12.863071 -33.390410 -0.814558 150.930291 -56.922944 -158.820140 42.462974 -15.362979 6.593676 0.185936 -51.152153 10.608148 -124.764410 85.659805 -112.848669 -2.143126 -12.180531 -4.236214 -0.208121 0.710762 -0.068532 -8.267140 -54.658998 15.697046 -152.812359 80.415122 -159.928398 1.288776 -17.033856 7.784935 -0.186517 -0.812525 -0.103166
15.788589 50.110710 53.897521 172.323973 -29.576460 -6.082411 7.790986 24.191675 9.029815 1.037081 4.132049 1.108667 1.689988 6.560995 1.801476 6.093305 20.079839 6.405906 -3.843110 13.428438 0.641044 -7.517206 -10.718822 2.734247 1.364932 -5.856117 -10.459183 21.229111 -31.122896 -10.463924 -157.720180 -57.154541 156.408277 -12.386129 -13.006279 17.210824 -16.944538 -6.325927 2.956750 -12.839085 -33.283381 -0.896658 151.386850 -57.148861 -159.244132 42.486402 -15.355791 6.363019 0.144686 -51.227832 10.610300 -124.893346 85.624039 -113.003500 -2.091685 -12.193505 -4.236121 -0.289748 0.703731 -0.059223 -8.320223 -54.733920 15.694805 -152.800937 80.409231 -159.916376 1.285101 -17.049126 7.800111 -0.189511 -0.801645 -0.110363
15.781338 50.114552 53.876078 172.401874 -29.522351 -6.051669 7.645495 24.081919 8.890368 1.013114 4.081106 1.090257 1.652143 6.485703 1.772457 6.003693 20.000098 6.343488 -3.824844 13.393875 0.685567 -7.502409 -10.780832 2.813657 1.308963 -5.910649 -10.375628 21.224492 -30.991660 -10.453674 -157.993324 -57.305737 156.657061 -12.352734 -13.041112 17.235731 -16.695110 -6.335720 2.824227 -12.801367 -33.166950 -0.964937 151.793050 -57.389522 -159.629743 42.512140 -15.357023 6.071846 0.151430 -51.268751 10.547438 -124.963684 85.549833 -113.110774 -2.165055 -12.261490 -4.163885 -0.264055 0.719566 -0.085036 -8.261015 -54.771073 15.559318 -152.727465 80.419862 -159.832294 1.246671 -17.083203 7.816273 -0.163281 -0.768205 -0.101516
15.774700 50.119647 53.856094 172.489363 -29.462282 -6.041942 7.494822 23.957504 8.766997 0.988924 4.028930 1.071545 1.613824 6.408529 1.742968 5.912358 19.917124 6.279740 -3.804914 13.359399 0.725135 -7.482526 -10.843164 2.882953 1.250653 -5.963055 -10.303680 21.203270 -30.847632 -10.426262 -158.393393 -57.473004 157.012405 -12.311467 -13.088114 17.223644 -16.437842 -6.353418 2.682367 -12.752625 -33.031930 -1.000252 152.235992 -57.656269 -160.030684 42.521987 -15.362656 5.747379 0.129795 -51.313641 10.487842 -125.123975 85.484324 -113.309604 -2.144891 -12.306464 -4.112540 -0.271294 0.717678 -0.102134 -8.263442 -54.819409 15.469530 -152.720924 80.424835 -159.827645 1.227915 -17.092979 7.830982 -0.152161 -0.757223 -0.091367
